<svg width="42" height="42" viewBox="0 0 42 42" fill="none" xmlns="http://www.w3.org/2000/svg">
<circle cx="21" cy="21" r="21" fill="#EEEEEE"/>
<path d="M10.4375 14.0938H23.4375C24.2995 14.0938 25.1261 14.4362 25.7356 15.0457C26.3451 15.6551 26.6875 16.4818 26.6875 17.3438V27.0938C26.6875 27.3092 26.6019 27.5159 26.4495 27.6683C26.2972 27.8206 26.0905 27.9062 25.875 27.9062H12.875C12.013 27.9062 11.1864 27.5638 10.5769 26.9543C9.96741 26.3449 9.625 25.5182 9.625 24.6562V14.9062C9.625 14.6908 9.7106 14.4841 9.86298 14.3317C10.0153 14.1794 10.222 14.0938 10.4375 14.0938V14.0938Z" stroke="#0E0E0E" stroke-width="2" stroke-linecap="round" stroke-linejoin="round"/>
<path d="M26.6875 19.375L32.375 16.125V25.875L26.6875 22.625" stroke="#0E0E0E" stroke-width="2" stroke-linecap="round" stroke-linejoin="round"/>
</svg>
