<svg width="42" height="42" viewBox="0 0 42 42" fill="none" xmlns="http://www.w3.org/2000/svg">
<circle cx="21" cy="21" r="21" fill="#EEEEEE"/>
<path d="M15.2701 22.625L11.25 25.875V12.875C11.25 12.6595 11.3356 12.4528 11.488 12.3005C11.6403 12.1481 11.847 12.0625 12.0625 12.0625H25.0625C25.278 12.0625 25.4847 12.1481 25.637 12.3005C25.7894 12.4528 25.875 12.6595 25.875 12.875V21.8125C25.875 22.028 25.7894 22.2347 25.637 22.387C25.4847 22.5394 25.278 22.625 25.0625 22.625H15.2701Z" stroke="#0E0E0E" stroke-width="2" stroke-linecap="round" stroke-linejoin="round"/>
<path d="M16.125 22.625V26.6875C16.125 26.903 16.2106 27.1097 16.363 27.262C16.5153 27.4144 16.722 27.5 16.9375 27.5H26.7299L30.75 30.75V17.75C30.75 17.5345 30.6644 17.3278 30.512 17.1755C30.3597 17.0231 30.153 16.9375 29.9375 16.9375H25.875" stroke="#0E0E0E" stroke-width="2" stroke-linecap="round" stroke-linejoin="round"/>
</svg>
