<svg width="58" height="42" viewBox="0 0 58 42" fill="none" xmlns="http://www.w3.org/2000/svg">
<rect width="58" height="42" rx="21" fill="#E30C40"/>
<path d="M25.3921 20.6769C26.2349 22.4 27.6316 23.7903 29.3585 24.6253C29.4848 24.6851 29.6246 24.7111 29.764 24.7005C29.9034 24.69 30.0377 24.6433 30.1536 24.5651L32.6963 22.8696C32.8087 22.7946 32.9381 22.7488 33.0727 22.7365C33.2073 22.7241 33.3429 22.7455 33.4671 22.7988L38.224 24.8374C38.3856 24.9061 38.5205 25.0254 38.6084 25.1774C38.6963 25.3293 38.7324 25.5058 38.7113 25.6801C38.561 26.8566 37.9869 27.9379 37.0967 28.7217C36.2065 29.5054 35.0611 29.9378 33.875 29.9379C30.2117 29.9379 26.6984 28.4826 24.1081 25.8923C21.5177 23.3019 20.0625 19.7887 20.0625 16.1254C20.0626 14.9393 20.4949 13.7939 21.2787 12.9037C22.0624 12.0135 23.1438 11.4394 24.3203 11.2891C24.4946 11.268 24.671 11.3041 24.823 11.392C24.975 11.4799 25.0943 11.6148 25.1629 11.7764L27.2034 16.5374C27.2562 16.6606 27.2777 16.7949 27.266 16.9283C27.2543 17.0618 27.2098 17.1903 27.1364 17.3024L25.4468 19.8841C25.3699 20.0002 25.3244 20.1343 25.3148 20.2733C25.3053 20.4123 25.3319 20.5513 25.3921 20.6769V20.6769Z" stroke="white" stroke-width="2" stroke-linecap="round" stroke-linejoin="round"/>
<path d="M32.25 12.875L37.125 17.75" stroke="white" stroke-width="2" stroke-linecap="round" stroke-linejoin="round"/>
<path d="M37.125 12.875L32.25 17.75" stroke="white" stroke-width="2" stroke-linecap="round" stroke-linejoin="round"/>
</svg>
