<svg width="42" height="42" viewBox="0 0 42 42" fill="none" xmlns="http://www.w3.org/2000/svg">
<circle cx="21" cy="21" r="21" fill="#EEEEEE"/>
<path d="M21 10.4375H21C22.0774 10.4375 23.1108 10.8655 23.8726 11.6274C24.6345 12.3892 25.0625 13.4226 25.0625 14.5V21C25.0625 22.0774 24.6345 23.1108 23.8726 23.8726C23.1108 24.6345 22.0774 25.0625 21 25.0625H21C20.4665 25.0625 19.9382 24.9574 19.4453 24.7533C18.9525 24.5491 18.5046 24.2499 18.1274 23.8726C17.7501 23.4954 17.4509 23.0475 17.2467 22.5547C17.0426 22.0618 16.9375 21.5335 16.9375 21V14.5C16.9375 13.4226 17.3655 12.3892 18.1274 11.6274C18.8892 10.8655 19.9226 10.4375 21 10.4375V10.4375Z" stroke="#0E0E0E" stroke-width="2" stroke-linecap="round" stroke-linejoin="round"/>
<path d="M21 28.3125V31.5625" stroke="#0E0E0E" stroke-width="2" stroke-linecap="round" stroke-linejoin="round"/>
<path d="M28.2682 21.8125C28.0681 23.6001 27.2163 25.2513 25.8755 26.4504C24.5347 27.6496 22.7991 28.3125 21.0003 28.3125C19.2015 28.3125 17.4658 27.6496 16.125 26.4504C14.7843 25.2513 13.9324 23.6001 13.7324 21.8125" stroke="#0E0E0E" stroke-width="2" stroke-linecap="round" stroke-linejoin="round"/>
</svg>
