<svg width="42" height="42" viewBox="0 0 42 42" fill="none" xmlns="http://www.w3.org/2000/svg">
<circle cx="21" cy="21" r="21" fill="#E30C40"/>
<path d="M25.9187 26.4114C24.9215 27.3176 23.6934 27.9307 22.3698 28.1831C21.0463 28.4354 19.6787 28.3172 18.4181 27.8415C17.1574 27.3657 16.0527 26.551 15.2259 25.4871C14.3991 24.4232 13.8822 23.1516 13.7324 21.8125" stroke="white" stroke-width="2" stroke-linecap="round" stroke-linejoin="round"/>
<path d="M23.7323 24.0062C22.9853 24.687 22.0107 25.0637 21 25.0623H21C19.9226 25.0623 18.8892 24.6343 18.1274 23.8724C17.3655 23.1105 16.9375 22.0772 16.9375 20.9998V16.5312" stroke="white" stroke-width="2" stroke-linecap="round" stroke-linejoin="round"/>
<path d="M21 28.3125V31.5625" stroke="white" stroke-width="2" stroke-linecap="round" stroke-linejoin="round"/>
<path d="M12.875 12.0625L29.125 29.9375" stroke="white" stroke-width="2" stroke-linecap="round" stroke-linejoin="round"/>
<path d="M17.543 12.3656C17.9068 11.7759 18.4155 11.2891 19.0207 10.9516C19.6259 10.6141 20.3073 10.4371 21.0003 10.4375H21.0003C21.5338 10.4375 22.062 10.5426 22.5549 10.7467C23.0478 10.9509 23.4956 11.2501 23.8729 11.6274C24.2501 12.0046 24.5494 12.4525 24.7535 12.9453C24.9577 13.4382 25.0628 13.9665 25.0628 14.5V20.6373" stroke="white" stroke-width="2" stroke-linecap="round" stroke-linejoin="round"/>
<path d="M28.2677 21.8125C28.1978 22.4465 28.0448 23.0685 27.8125 23.6625" stroke="white" stroke-width="2" stroke-linecap="round" stroke-linejoin="round"/>
</svg>
