<svg width="42" height="42" viewBox="0 0 42 42" fill="none" xmlns="http://www.w3.org/2000/svg">
<circle cx="21" cy="21" r="21" fill="#EEEEEE"/>
<path d="M21.0002 24.25L25.875 29.9375H16.125L21.0002 24.25Z" stroke="#0E0E0E" stroke-width="2" stroke-linecap="round" stroke-linejoin="round"/>
<path d="M14.5 27.5H12.875C12.444 27.5 12.0307 27.3288 11.726 27.024C11.4212 26.7193 11.25 26.306 11.25 25.875V14.5C11.25 14.069 11.4212 13.6557 11.726 13.351C12.0307 13.0462 12.444 12.875 12.875 12.875H29.125C29.556 12.875 29.9693 13.0462 30.274 13.351C30.5788 13.6557 30.75 14.069 30.75 14.5V25.875C30.75 26.306 30.5788 26.7193 30.274 27.024C29.9693 27.3288 29.556 27.5 29.125 27.5H27.5" stroke="#0E0E0E" stroke-width="2" stroke-linecap="round" stroke-linejoin="round"/>
</svg>
