<svg width="42" height="42" viewBox="0 0 42 42" fill="none" xmlns="http://www.w3.org/2000/svg">
<circle cx="21" cy="21" r="21" fill="#E30C40"/>
<path d="M29.8406 14.5156C28.8269 13.1166 27.4958 11.9778 25.9567 11.1929C24.4175 10.4079 22.7142 9.99909 20.9865 10C15.3333 10 10.6844 14.2865 10.1083 19.7875L10 20.8229L12.0729 21.0406L12.1802 20.0042C12.3742 18.1706 13.1357 16.4434 14.3585 15.0634C15.5812 13.6834 17.2042 12.7195 19.0011 12.3062C20.7979 11.8928 22.679 12.0507 24.3818 12.7577C26.0846 13.4646 27.5243 14.6855 28.5 16.25H24.6323V18.3333H31.924V11.0417H29.8406V14.5156ZM29.9 20.8344L29.7917 21.8708C29.5974 23.7041 28.8358 25.431 27.6131 26.8107C26.3904 28.1904 24.7677 29.1541 22.9711 29.5674C21.1745 29.9807 19.2937 29.823 17.5911 29.1163C15.8884 28.4096 14.4488 27.1891 13.4729 25.625H17.3406V23.5417H10.049V30.8333H12.1323V27.3594C13.146 28.7585 14.4771 29.8972 16.0162 30.6822C17.5554 31.4671 19.2587 31.8759 20.9865 31.875C26.6385 31.875 31.2885 27.5885 31.8635 22.0875L31.9719 21.0521L29.9 20.8344Z" fill="white"/>
</svg>
