<svg width="42" height="42" viewBox="0 0 42 42" fill="none" xmlns="http://www.w3.org/2000/svg">
<circle cx="21" cy="21" r="21" fill="#EEEEEE"/>
<path d="M21 25.875C23.6924 25.875 25.875 23.6924 25.875 21C25.875 18.3076 23.6924 16.125 21 16.125C18.3076 16.125 16.125 18.3076 16.125 21C16.125 23.6924 18.3076 25.875 21 25.875Z" stroke="#0E0E0E" stroke-width="2" stroke-linecap="round" stroke-linejoin="round"/>
<path d="M26.6532 14.6105C26.9134 14.8409 27.1594 15.0868 27.3898 15.347L30.1647 15.7433C30.6147 16.5269 30.9616 17.3653 31.1969 18.2378L29.5156 20.4794C29.5156 20.4794 29.5368 21.174 29.5157 21.5209L31.1977 23.7633C30.9618 24.6356 30.6143 25.4737 30.1637 26.257L27.3898 26.6533C27.3898 26.6533 26.9135 27.1594 26.6534 27.3898L26.2571 30.1647C25.4735 30.6147 24.6351 30.9616 23.7627 31.1969L21.5211 29.5157C21.1742 29.5368 20.8264 29.5368 20.4795 29.5157L18.2371 31.1977C17.3648 30.9618 16.5267 30.6143 15.7434 30.1637L15.3472 27.3899C15.087 27.1595 14.841 26.9136 14.6106 26.6534L11.8357 26.2571C11.3857 25.4735 11.0388 24.6351 10.8035 23.7627L12.4848 21.521C12.4848 21.521 12.4636 20.8264 12.4847 20.4795L10.8027 18.2371C11.0386 17.3648 11.3861 16.5267 11.8367 15.7434L14.6105 15.3472C14.8409 15.087 15.0868 14.841 15.347 14.6106L15.7433 11.8357C16.5269 11.3857 17.3653 11.0388 18.2378 10.8035L20.4793 12.4847C20.8262 12.4636 21.174 12.4636 21.5209 12.4847L23.7633 10.8027C24.6356 11.0386 25.4737 11.3861 26.257 11.8367L26.6532 14.6105Z" stroke="#0E0E0E" stroke-width="2" stroke-linecap="round" stroke-linejoin="round"/>
</svg>
